<?xml version="1.0" encoding="UTF-8"?>
<svg width="242px" height="53px" viewBox="0 0 242 53" version="1.1" xmlns="http://www.w3.org/2000/svg" xmlns:xlink="http://www.w3.org/1999/xlink">
    <!-- Generator: Sketch 46.2 (44496) - http://www.bohemiancoding.com/sketch -->
    <title>logo_park</title>
    <desc>Created with Sketch.</desc>
    <defs></defs>
    <g id="Page-1" stroke="none" stroke-width="1" fill="none" fill-rule="evenodd">
        <g id="Large-desktop-green-parkomatica-b2b-(1200px-or-more)-work" transform="translate(-158.000000, -24.000000)">
            <g id="bar">
                <g id="logo-part" transform="translate(158.000000, 23.000000)">
                    <g id="logo" transform="translate(2.000000, 3.463089)">
                        <g id="Group-4" transform="translate(11.879368, 11.114723)">
                            <path d="M5.35707215,11.6302365 C6.34392144,14.5179854 9.05443941,16.591822 12.2436002,16.591822 C16.2669078,16.591822 19.5284431,13.2912579 19.5284431,9.21980574 C19.5284431,5.14835359 16.2669078,1.84778949 12.2436002,1.84778949 C10.1997707,1.84778949 8.35252514,2.69953731 7.02956856,4.07140648" id="Oval-5" stroke="#34363C" stroke-width="4" stroke-linecap="round"></path>
                            <path d="M6.28572482,2.7151024 L9.17465834,7.54512377 L9.17465834,7.54512377 C9.47588949,8.04875352 9.311813,8.70122219 8.80818325,9.00245334 C8.64333471,9.10105259 8.45484155,9.15312182 8.26275601,9.15312182 L2.48488897,9.15312182 L2.48488897,9.15312182 C1.89804732,9.15312182 1.42231816,8.67739266 1.42231816,8.09055101 C1.42231816,7.89846547 1.47438739,7.70997231 1.57298664,7.54512377 L4.46192016,2.7151024 L4.46192016,2.7151024 C4.7631513,2.21147265 5.41561998,2.04739616 5.91924973,2.34862731 C6.06978393,2.43866486 6.19568727,2.5645682 6.28572482,2.7151024 Z" id="Triangle" fill="#34363C" transform="translate(5.373903, 5.675459) rotate(-135.000000) translate(-5.373903, -5.675459) "></path>
                            <path d="M5,11.8669785 L5,24.433419" id="Path-2" stroke="#34363C" stroke-width="4" stroke-linecap="round"></path>
                        </g>
                        <ellipse id="Oval" stroke="#34363C" stroke-width="4" cx="22.6187453" cy="23.3100435" rx="22.6187453" ry="23.3100435"></ellipse>
                    </g>
                    <g id="text-part" transform="translate(56.316851, 0.000000)" fill="#34363C">
                        <text id="ПАРКОМАТИКА" font-family="Intro, Intro " font-size="22.5943011" font-weight="normal" letter-spacing="0.460647472">
                            <tspan x="0" y="22">ПАРКОМАТИКА</tspan>
                        </text>
                        <path d="M6.55416559,35.971781 L6.28924826,35.1037541 L6.24415595,35.1037541 C5.94353905,35.4832829 5.64104782,35.7416217 5.3366732,35.8787782 C5.03229858,36.0159346 4.64150246,36.0845118 4.16427312,36.0845118 C3.55176617,36.0845118 3.07360458,35.919175 2.72977399,35.5884964 C2.3859434,35.2578178 2.21403069,34.7899898 2.21403069,34.1849982 C2.21403069,33.5424296 2.45264178,33.0576921 2.92987112,32.7307712 C3.40710046,32.4038503 4.1342067,32.2253617 5.11121165,32.1953 L6.18779056,32.1614808 L6.18779056,31.828925 C6.18779056,31.4306076 6.0947886,31.1328134 5.90878189,30.9355336 C5.72277518,30.7382538 5.43437516,30.6396153 5.04357318,30.6396153 C4.72416772,30.6396153 4.41791884,30.686586 4.12481735,30.7805288 C3.83171587,30.8744716 3.54989174,30.9853224 3.27933653,31.1130846 L2.85095957,30.166146 C3.18915359,29.9895336 3.55928261,29.8551974 3.96135772,29.7631335 C4.36343284,29.6710696 4.74295599,29.6250383 5.09993857,29.6250383 C5.89281566,29.6250383 6.49122222,29.7978904 6.89517619,30.1435999 C7.29913016,30.4893093 7.50110411,31.0322905 7.50110411,31.7725596 L7.50110411,35.971781 L6.55416559,35.971781 Z M4.581377,35.0699348 C5.06236405,35.0699348 5.4484631,34.9355987 5.73968573,34.6669223 C6.03090836,34.3982459 6.17651749,34.021541 6.17651749,33.5367963 L6.17651749,32.9956885 L5.37612897,33.0295078 C4.75234889,33.052054 4.29861205,33.156329 4.01490484,33.3423357 C3.73119764,33.5283424 3.58934616,33.8129848 3.58934616,34.1962713 C3.58934616,34.474342 3.67201457,34.6894677 3.83735387,34.841655 C4.00269317,34.9938423 4.2506984,35.0699348 4.581377,35.0699348 Z M14.8764024,31.3329096 C14.8764024,32.069421 14.446151,32.5147031 13.5856351,32.6687693 L13.5856351,32.7138616 C14.0666221,32.7702273 14.4348723,32.9224123 14.6903967,33.1704212 C14.945921,33.4184302 15.0736813,33.7397097 15.0736813,34.1342694 C15.0736813,34.7242301 14.8491614,35.1779669 14.4001149,35.4954935 C13.9510684,35.8130201 13.2981759,35.971781 12.4414177,35.971781 L9.46532517,35.971781 L9.46532517,29.7377691 L12.4301446,29.7377691 C14.0609913,29.7377691 14.8764024,30.2694773 14.8764024,31.3329096 Z M13.7152754,34.0553578 C13.7152754,33.7547409 13.5987881,33.541494 13.36581,33.4156107 C13.1328319,33.2897274 12.78337,33.2267866 12.3174138,33.2267866 L10.7899118,33.2267866 L10.7899118,34.9910233 L12.351233,34.9910233 C13.2605992,34.9910233 13.7152754,34.6791379 13.7152754,34.0553578 Z M13.5518158,31.4456404 C13.5518158,31.1976314 13.4550562,31.0182034 13.2615341,30.9073509 C13.0680119,30.7964984 12.7796119,30.741073 12.3963254,30.741073 L10.7899118,30.741073 L10.7899118,32.2403923 L12.1990465,32.2403923 C12.6424564,32.2403923 12.9787666,32.1830881 13.207987,32.0684779 C13.4372073,31.9538677 13.5518158,31.7462573 13.5518158,31.4456404 Z M21.2371238,29.7377691 L21.2371238,30.7748922 L19.2079698,30.7748922 L19.2079698,35.971781 L17.8777466,35.971781 L17.8777466,30.7748922 L15.8485927,30.7748922 L15.8485927,29.7377691 L21.2371238,29.7377691 Z M27.9698567,32.843502 C27.9698567,33.8618418 27.7086997,34.6565858 27.1863778,35.2277579 C26.6640559,35.79893 25.9369497,36.0845118 25.0050373,36.0845118 C24.422592,36.0845118 23.9077933,35.9529939 23.4606256,35.6899541 C23.013458,35.4269143 22.6696326,35.04927 22.429139,34.5570098 C22.1886455,34.0647496 22.0684005,33.4935861 22.0684005,32.843502 C22.0684005,31.8326776 22.3276787,31.0435701 22.8462429,30.4761557 C23.3648071,29.9087413 24.095671,29.6250383 25.0388565,29.6250383 C25.9407072,29.6250383 26.6546617,29.9153172 27.1807413,30.4958836 C27.7068209,31.07645 27.9698567,31.8589816 27.9698567,32.843502 Z M23.4324429,32.843502 C23.4324429,34.2827054 23.9641511,35.0022964 25.0275834,35.0022964 C26.0797426,35.0022964 26.6058143,34.2827054 26.6058143,32.843502 C26.6058143,31.4193294 26.075985,30.7072538 25.0163104,30.7072538 C24.4601691,30.7072538 24.0571606,30.8913789 23.8072728,31.2596346 C23.557385,31.6278903 23.4324429,32.1558408 23.4324429,32.843502 Z M33.1863607,34.7035598 L33.2596357,34.4330059 C33.4137018,33.873107 33.5470986,33.4428555 33.6598299,33.1422385 L35.0576916,29.7377691 L36.8219282,29.7377691 L36.8219282,35.971781 L35.5987993,35.971781 L35.5987993,30.9383519 L35.4973416,31.2765442 C35.3282446,31.8815357 35.1854537,32.3268178 35.0689646,32.6124039 L33.7049222,35.971781 L32.7016183,35.971781 L31.3375759,32.5898577 C31.1496904,32.1013553 30.9768382,31.5508588 30.8190144,30.9383519 L30.8190144,35.971781 L29.6071585,35.971781 L29.6071585,29.7377691 L31.3601221,29.7377691 L32.7128914,33.0407809 C32.8331382,33.3451555 32.9909597,33.8994096 33.1863607,34.7035598 Z M42.7317264,35.971781 L42.4668091,35.1037541 L42.4217168,35.1037541 C42.1210999,35.4832829 41.8186087,35.7416217 41.5142341,35.8787782 C41.2098594,36.0159346 40.8190633,36.0845118 40.341834,36.0845118 C39.729327,36.0845118 39.2511654,35.919175 38.9073348,35.5884964 C38.5635043,35.2578178 38.3915915,34.7899898 38.3915915,34.1849982 C38.3915915,33.5424296 38.6302026,33.0576921 39.107432,32.7307712 C39.5846613,32.4038503 40.3117676,32.2253617 41.2887725,32.1953 L42.3653514,32.1614808 L42.3653514,31.828925 C42.3653514,31.4306076 42.2723495,31.1328134 42.0863428,30.9355336 C41.900336,30.7382538 41.611936,30.6396153 41.221134,30.6396153 C40.9017286,30.6396153 40.5954797,30.686586 40.3023782,30.7805288 C40.0092767,30.8744716 39.7274526,30.9853224 39.4568974,31.1130846 L39.0285204,30.166146 C39.3667145,29.9895336 39.7368435,29.8551974 40.1389186,29.7631335 C40.5409937,29.6710696 40.9205169,29.6250383 41.2774994,29.6250383 C42.0703765,29.6250383 42.6687831,29.7978904 43.072737,30.1435999 C43.476691,30.4893093 43.678665,31.0322905 43.678665,31.7725596 L43.678665,35.971781 L42.7317264,35.971781 Z M40.7589379,35.0699348 C41.2399249,35.0699348 41.626024,34.9355987 41.9172466,34.6669223 C42.2084692,34.3982459 42.3540783,34.021541 42.3540783,33.5367963 L42.3540783,32.9956885 L41.5536898,33.0295078 C40.9299097,33.052054 40.4761729,33.156329 40.1924657,33.3423357 C39.9087585,33.5283424 39.766907,33.8129848 39.766907,34.1962713 C39.766907,34.474342 39.8495754,34.6894677 40.0149147,34.841655 C40.180254,34.9938423 40.4282593,35.0699348 40.7589379,35.0699348 Z M50.3268498,29.7377691 L50.3268498,30.7748922 L48.2976958,30.7748922 L48.2976958,35.971781 L46.9674727,35.971781 L46.9674727,30.7748922 L44.9383187,30.7748922 L44.9383187,29.7377691 L50.3268498,29.7377691 Z M52.9110901,29.7377691 L52.9110901,32.9336866 C52.9110901,33.3057 52.8810289,33.8524388 52.8209055,34.5739194 L55.9491846,29.7377691 L57.5668712,29.7377691 L57.5668712,35.971781 L56.2930134,35.971781 L56.2930134,32.8322289 C56.2930134,32.6593742 56.303347,32.3794289 56.3240144,31.9923846 C56.3446818,31.6053404 56.3625307,31.3235162 56.3775615,31.1469038 L53.2605555,35.971781 L51.6428689,35.971781 L51.6428689,29.7377691 L52.9110901,29.7377691 Z M60.9458635,32.2291193 C61.550855,32.2291193 61.9961371,32.1624209 62.2817232,32.0290221 C62.5673093,31.8956234 62.7101002,31.6898918 62.7101002,31.4118211 C62.7101002,30.9045301 62.2591816,30.6508884 61.3573308,30.6508884 C60.756097,30.6508884 60.1417204,30.786164 59.5141826,31.0567192 L59.0858057,30.0703249 C59.811044,29.7734657 60.6114245,29.6250383 61.4869712,29.6250383 C62.2610598,29.6250383 62.8622846,29.7668898 63.2906637,30.050597 C63.7190428,30.3343042 63.9332291,30.7410704 63.9332291,31.2709077 C63.9332291,31.969842 63.5330388,32.4282759 62.7326463,32.6462231 L62.7326463,32.6913154 C63.2324219,32.8265931 63.5903386,33.0201123 63.806407,33.2718789 C64.0224754,33.5236456 64.1305079,33.835531 64.1305079,34.2075444 C64.1305079,34.7787165 63.8796845,35.2343322 63.37803,35.5744051 C62.8763755,35.9144779 62.1765123,36.0845118 61.2784193,36.0845118 C60.2976566,36.0845118 59.5480045,35.9548727 59.0294403,35.6955906 L59.0294403,34.5513733 C59.7171015,34.8745364 60.4291771,35.0361156 61.1656885,35.0361156 C61.6955258,35.0361156 62.1041708,34.9619019 62.3916357,34.8134723 C62.6791006,34.6650427 62.8228309,34.438644 62.8228309,34.1342694 C62.8228309,33.8223793 62.6781612,33.5931624 62.3888174,33.4466116 C62.0994737,33.3000609 61.6523127,33.2267866 61.0473212,33.2267866 L60.2863885,33.2267866 L60.2863885,32.2291193 L60.9458635,32.2291193 Z M66.9458464,29.7377691 L66.9458464,32.9336866 C66.9458464,33.3057 66.9157851,33.8524388 66.8556617,34.5739194 L69.9839408,29.7377691 L71.6016274,29.7377691 L71.6016274,35.971781 L70.3277697,35.971781 L70.3277697,32.8322289 C70.3277697,32.6593742 70.3381032,32.3794289 70.3587706,31.9923846 C70.379438,31.6053404 70.3972869,31.3235162 70.4123177,31.1469038 L67.2953118,35.971781 L65.6776251,35.971781 L65.6776251,29.7377691 L66.9458464,29.7377691 Z M76.7674026,36.0845118 C75.9782832,36.0845118 75.3657854,35.8008089 74.9298909,35.2333945 L74.8509793,35.2333945 C74.9035873,35.759474 74.9298909,36.0788747 74.9298909,36.1916061 L74.9298909,38.7449582 L73.6053043,38.7449582 L73.6053043,29.7377691 L74.6762466,29.7377691 C74.7063083,29.8542581 74.7683096,30.1323246 74.8622524,30.5719768 L74.9298909,30.5719768 C75.3432391,29.9406813 75.9632522,29.6250383 76.7899487,29.6250383 C77.567795,29.6250383 78.1737168,29.9068624 78.6077325,30.4705191 C79.0417481,31.0341758 79.2587527,31.8251622 79.2587527,32.843502 C79.2587527,33.8618418 79.0379905,34.6565858 78.5964594,35.2277579 C78.1549283,35.79893 77.5452488,36.0845118 76.7674026,36.0845118 Z M76.4461198,30.7072538 C75.9200402,30.7072538 75.53582,30.8613176 75.2934476,31.16945 C75.0510753,31.4775823 74.9298909,31.9698351 74.9298909,32.6462231 L74.9298909,32.843502 C74.9298909,33.6025597 75.0501359,34.1521167 75.2906294,34.4921896 C75.5311229,34.8322625 75.9237978,35.0022964 76.468666,35.0022964 C76.9271068,35.0022964 77.2803263,34.8144136 77.5283353,34.4386425 C77.7763442,34.0628713 77.9003469,33.5274055 77.9003469,32.8322289 C77.9003469,32.1332946 77.7772837,31.6044047 77.5311536,31.2455432 C77.2850235,30.8866818 76.9233492,30.7072538 76.4461198,30.7072538 Z M86.4424087,32.843502 C86.4424087,33.8618418 86.1812517,34.6565858 85.6589298,35.2277579 C85.136608,35.79893 84.4095017,36.0845118 83.4775893,36.0845118 C82.895144,36.0845118 82.3803453,35.9529939 81.9331777,35.6899541 C81.48601,35.4269143 81.1421846,35.04927 80.9016911,34.5570098 C80.6611975,34.0647496 80.5409526,33.4935861 80.5409526,32.843502 C80.5409526,31.8326776 80.8002308,31.0435701 81.3187949,30.4761557 C81.8373591,29.9087413 82.568223,29.6250383 83.5114085,29.6250383 C84.4132593,29.6250383 85.1272137,29.9153172 85.6532933,30.4958836 C86.1793729,31.07645 86.4424087,31.8589816 86.4424087,32.843502 Z M81.904995,32.843502 C81.904995,34.2827054 82.4367031,35.0022964 83.5001355,35.0022964 C84.5522946,35.0022964 85.0783663,34.2827054 85.0783663,32.843502 C85.0783663,31.4193294 84.548537,30.7072538 83.4888624,30.7072538 C82.9327211,30.7072538 82.5297126,30.8913789 82.2798248,31.2596346 C82.029937,31.6278903 81.904995,32.1558408 81.904995,32.843502 Z M93.4907878,31.3329096 C93.4907878,32.069421 93.0605363,32.5147031 92.2000204,32.6687693 L92.2000204,32.7138616 C92.6810075,32.7702273 93.0492577,32.9224123 93.304782,33.1704212 C93.5603064,33.4184302 93.6880667,33.7397097 93.6880667,34.1342694 C93.6880667,34.7242301 93.4635468,35.1779669 93.0145003,35.4954935 C92.5654538,35.8130201 91.9125612,35.971781 91.055803,35.971781 L88.0797105,35.971781 L88.0797105,29.7377691 L91.04453,29.7377691 C92.6753767,29.7377691 93.4907878,30.2694773 93.4907878,31.3329096 Z M92.3296608,34.0553578 C92.3296608,33.7547409 92.2131735,33.541494 91.9801954,33.4156107 C91.7472173,33.2897274 91.3977554,33.2267866 90.9317992,33.2267866 L89.4042972,33.2267866 L89.4042972,34.9910233 L90.9656184,34.9910233 C91.8749846,34.9910233 92.3296608,34.6791379 92.3296608,34.0553578 Z M92.1662012,31.4456404 C92.1662012,31.1976314 92.0694416,31.0182034 91.8759194,30.9073509 C91.6823973,30.7964984 91.3939973,30.741073 91.0107107,30.741073 L89.4042972,30.741073 L89.4042972,32.2403923 L90.8134319,32.2403923 C91.2568418,32.2403923 91.5931519,32.1830881 91.8223723,32.0684779 C92.0515927,31.9538677 92.1662012,31.7462573 92.1662012,31.4456404 Z M99.0680303,35.971781 L98.8031129,35.1037541 L98.7580206,35.1037541 C98.4574037,35.4832829 98.1549125,35.7416217 97.8505379,35.8787782 C97.5461633,36.0159346 97.1553671,36.0845118 96.6781378,36.0845118 C96.0656308,36.0845118 95.5874692,35.919175 95.2436387,35.5884964 C94.8998081,35.2578178 94.7278954,34.7899898 94.7278954,34.1849982 C94.7278954,33.5424296 94.9665064,33.0576921 95.4437358,32.7307712 C95.9209651,32.4038503 96.6480714,32.2253617 97.6250763,32.1953 L98.7016552,32.1614808 L98.7016552,31.828925 C98.7016552,31.4306076 98.6086533,31.1328134 98.4226466,30.9355336 C98.2366399,30.7382538 97.9482398,30.6396153 97.5574379,30.6396153 C97.2380324,30.6396153 96.9317835,30.686586 96.638682,30.7805288 C96.3455805,30.8744716 96.0637564,30.9853224 95.7932012,31.1130846 L95.3648242,30.166146 C95.7030183,29.9895336 96.0731473,29.8551974 96.4752224,29.7631335 C96.8772975,29.6710696 97.2568207,29.6250383 97.6138032,29.6250383 C98.4066803,29.6250383 99.0050869,29.7978904 99.4090409,30.1435999 C99.8129948,30.4893093 100.014969,31.0322905 100.014969,31.7725596 L100.014969,35.971781 L99.0680303,35.971781 Z M97.0952417,35.0699348 C97.5762287,35.0699348 97.9623278,34.9355987 98.2535504,34.6669223 C98.544773,34.3982459 98.6903822,34.021541 98.6903822,33.5367963 L98.6903822,32.9956885 L97.8899936,33.0295078 C97.2662136,33.052054 96.8124767,33.156329 96.5287695,33.3423357 C96.2450623,33.5283424 96.1032108,33.8129848 96.1032108,34.1962713 C96.1032108,34.474342 96.1858792,34.6894677 96.3512185,34.841655 C96.5165578,34.9938423 96.7645631,35.0699348 97.0952417,35.0699348 Z M103.303776,29.7377691 L103.303776,32.2403923 L106.240413,32.2403923 L106.240413,29.7377691 L107.565,29.7377691 L107.565,35.971781 L106.240413,35.971781 L106.240413,33.283152 L103.303776,33.283152 L103.303776,35.971781 L101.97919,35.971781 L101.97919,29.7377691 L103.303776,29.7377691 Z M110.8989,29.7377691 L110.8989,32.2403923 L113.835537,32.2403923 L113.835537,29.7377691 L115.160123,29.7377691 L115.160123,35.971781 L113.835537,35.971781 L113.835537,33.283152 L110.8989,33.283152 L110.8989,35.971781 L109.574313,35.971781 L109.574313,29.7377691 L110.8989,29.7377691 Z M121.069921,35.971781 L120.805004,35.1037541 L120.759912,35.1037541 C120.459295,35.4832829 120.156804,35.7416217 119.852429,35.8787782 C119.548054,36.0159346 119.157258,36.0845118 118.680029,36.0845118 C118.067522,36.0845118 117.58936,35.919175 117.24553,35.5884964 C116.901699,35.2578178 116.729787,34.7899898 116.729787,34.1849982 C116.729787,33.5424296 116.968398,33.0576921 117.445627,32.7307712 C117.922856,32.4038503 118.649963,32.2253617 119.626967,32.1953 L120.703546,32.1614808 L120.703546,31.828925 C120.703546,31.4306076 120.610544,31.1328134 120.424538,30.9355336 C120.238531,30.7382538 119.950131,30.6396153 119.559329,30.6396153 C119.239924,30.6396153 118.933675,30.686586 118.640573,30.7805288 C118.347472,30.8744716 118.065648,30.9853224 117.795092,31.1130846 L117.366715,30.166146 C117.704909,29.9895336 118.075038,29.8551974 118.477114,29.7631335 C118.879189,29.6710696 119.258712,29.6250383 119.615694,29.6250383 C120.408571,29.6250383 121.006978,29.7978904 121.410932,30.1435999 C121.814886,30.4893093 122.01686,31.0322905 122.01686,31.7725596 L122.01686,35.971781 L121.069921,35.971781 Z M119.097133,35.0699348 C119.57812,35.0699348 119.964219,34.9355987 120.255442,34.6669223 C120.546664,34.3982459 120.692273,34.021541 120.692273,33.5367963 L120.692273,32.9956885 L119.891885,33.0295078 C119.268105,33.052054 118.814368,33.156329 118.530661,33.3423357 C118.246953,33.5283424 118.105102,33.8129848 118.105102,34.1962713 C118.105102,34.474342 118.18777,34.6894677 118.35311,34.841655 C118.518449,34.9938423 118.766454,35.0699348 119.097133,35.0699348 Z M124.61801,35.971781 L123.1356,35.971781 L124.871654,33.418429 C124.45079,33.2981822 124.120117,33.0830564 123.879623,32.7730453 C123.63913,32.4630341 123.518885,32.0788138 123.518885,31.6203731 C123.518885,31.0304124 123.729313,30.5691602 124.150177,30.2366028 C124.571041,29.9040453 125.145962,29.7377691 125.874958,29.7377691 L128.715774,29.7377691 L128.715774,35.971781 L127.38555,35.971781 L127.38555,33.5706155 L126.128602,33.5706155 L124.61801,35.971781 Z M124.809652,31.6316461 C124.809652,31.9510516 124.930837,32.1906021 125.173209,32.3503048 C125.415581,32.5100076 125.741558,32.5898577 126.151148,32.5898577 L127.38555,32.5898577 L127.38555,30.741073 L125.942597,30.741073 C125.581856,30.741073 125.30285,30.8181049 125.10557,30.9721711 C124.908291,31.1262373 124.809652,31.3460601 124.809652,31.6316461 Z M139.368607,32.843502 C139.368607,33.8618418 139.10745,34.6565858 138.585128,35.2277579 C138.062806,35.79893 137.3357,36.0845118 136.403787,36.0845118 C135.821342,36.0845118 135.306543,35.9529939 134.859375,35.6899541 C134.412208,35.4269143 134.068382,35.04927 133.827889,34.5570098 C133.587395,34.0647496 133.46715,33.4935861 133.46715,32.843502 C133.46715,31.8326776 133.726429,31.0435701 134.244993,30.4761557 C134.763557,29.9087413 135.494421,29.6250383 136.437606,29.6250383 C137.339457,29.6250383 138.053412,29.9153172 138.579491,30.4958836 C139.105571,31.07645 139.368607,31.8589816 139.368607,32.843502 Z M134.831193,32.843502 C134.831193,34.2827054 135.362901,35.0022964 136.426333,35.0022964 C137.478492,35.0022964 138.004564,34.2827054 138.004564,32.843502 C138.004564,31.4193294 137.474735,30.7072538 136.41506,30.7072538 C135.858919,30.7072538 135.45591,30.8913789 135.206023,31.2596346 C134.956135,31.6278903 134.831193,32.1558408 134.831193,32.843502 Z M146.456441,29.7377691 L146.456441,35.971781 L145.126218,35.971781 L145.126218,30.7861653 L142.330495,30.7861653 L142.330495,35.971781 L141.005908,35.971781 L141.005908,29.7377691 L146.456441,29.7377691 Z M153.589369,35.971781 L152.253509,35.971781 L152.253509,30.7748922 L150.534365,30.7748922 C150.429149,32.1126375 150.287297,33.1572656 150.108806,33.9088078 C149.930315,34.6603501 149.69734,35.2089677 149.409875,35.5546772 C149.12241,35.9003866 148.749463,36.0732387 148.291022,36.0732387 C148.001678,36.0732387 147.75931,36.0319045 147.563909,35.9492349 L147.563909,34.9121117 C147.702944,34.9647197 147.841977,34.9910233 147.981012,34.9910233 C148.364299,34.9910233 148.665851,34.5598324 148.885677,33.6974376 C149.105503,32.8350429 149.277416,31.5151666 149.40142,29.7377691 L153.589369,29.7377691 L153.589369,35.971781 Z M159.499167,35.971781 L159.234249,35.1037541 L159.189157,35.1037541 C158.88854,35.4832829 158.586049,35.7416217 158.281674,35.8787782 C157.9773,36.0159346 157.586504,36.0845118 157.109274,36.0845118 C156.496767,36.0845118 156.018606,35.919175 155.674775,35.5884964 C155.330945,35.2578178 155.159032,34.7899898 155.159032,34.1849982 C155.159032,33.5424296 155.397643,33.0576921 155.874872,32.7307712 C156.352102,32.4038503 157.079208,32.2253617 158.056213,32.1953 L159.132792,32.1614808 L159.132792,31.828925 C159.132792,31.4306076 159.03979,31.1328134 158.853783,30.9355336 C158.667776,30.7382538 158.379376,30.6396153 157.988574,30.6396153 C157.669169,30.6396153 157.36292,30.686586 157.069819,30.7805288 C156.776717,30.8744716 156.494893,30.9853224 156.224338,31.1130846 L155.795961,30.166146 C156.134155,29.9895336 156.504284,29.8551974 156.906359,29.7631335 C157.308434,29.6710696 157.687957,29.6250383 158.04494,29.6250383 C158.837817,29.6250383 159.436223,29.7978904 159.840177,30.1435999 C160.244131,30.4893093 160.446105,31.0322905 160.446105,31.7725596 L160.446105,35.971781 L159.499167,35.971781 Z M157.526378,35.0699348 C158.007365,35.0699348 158.393464,34.9355987 158.684687,34.6669223 C158.97591,34.3982459 159.121519,34.021541 159.121519,33.5367963 L159.121519,32.9956885 L158.32113,33.0295078 C157.69735,33.052054 157.243613,33.156329 156.959906,33.3423357 C156.676199,33.5283424 156.534347,33.8129848 156.534347,34.1962713 C156.534347,34.474342 156.617016,34.6894677 156.782355,34.841655 C156.947694,34.9938423 157.1957,35.0699348 157.526378,35.0699348 Z M167.09429,29.7377691 L167.09429,30.7748922 L165.065136,30.7748922 L165.065136,35.971781 L163.734913,35.971781 L163.734913,30.7748922 L161.705759,30.7748922 L161.705759,29.7377691 L167.09429,29.7377691 Z M172.310794,35.971781 L172.045877,35.1037541 L172.000784,35.1037541 C171.700168,35.4832829 171.397676,35.7416217 171.093302,35.8787782 C170.788927,36.0159346 170.398131,36.0845118 169.920902,36.0845118 C169.308395,36.0845118 168.830233,35.919175 168.486403,35.5884964 C168.142572,35.2578178 167.970659,34.7899898 167.970659,34.1849982 C167.970659,33.5424296 168.20927,33.0576921 168.6865,32.7307712 C169.163729,32.4038503 169.890835,32.2253617 170.86784,32.1953 L171.944419,32.1614808 L171.944419,31.828925 C171.944419,31.4306076 171.851417,31.1328134 171.66541,30.9355336 C171.479404,30.7382538 171.191004,30.6396153 170.800202,30.6396153 C170.480796,30.6396153 170.174547,30.686586 169.881446,30.7805288 C169.588344,30.8744716 169.30652,30.9853224 169.035965,31.1130846 L168.607588,30.166146 C168.945782,29.9895336 169.315911,29.8551974 169.717986,29.7631335 C170.120061,29.6710696 170.499585,29.6250383 170.856567,29.6250383 C171.649444,29.6250383 172.247851,29.7978904 172.651805,30.1435999 C173.055759,30.4893093 173.257733,31.0322905 173.257733,31.7725596 L173.257733,35.971781 L172.310794,35.971781 Z M170.338006,35.0699348 C170.818993,35.0699348 171.205092,34.9355987 171.496314,34.6669223 C171.787537,34.3982459 171.933146,34.021541 171.933146,33.5367963 L171.933146,32.9956885 L171.132757,33.0295078 C170.508977,33.052054 170.055241,33.156329 169.771533,33.3423357 C169.487826,33.5283424 169.345975,33.8129848 169.345975,34.1962713 C169.345975,34.474342 169.428643,34.6894677 169.593982,34.841655 C169.759322,34.9938423 170.007327,35.0699348 170.338006,35.0699348 Z M8.10421377,44.7444901 L8.10421377,50.978502 L6.7739906,50.978502 L6.7739906,45.7928863 L3.97826734,45.7928863 L3.97826734,50.978502 L2.65368071,50.978502 L2.65368071,44.7444901 L8.10421377,44.7444901 Z M15.2371409,50.978502 L13.9012812,50.978502 L13.9012812,45.7816132 L12.1821369,45.7816132 C12.076921,47.1193585 11.9350695,48.1639866 11.7565782,48.9155288 C11.5780869,49.6670711 11.3451123,50.2156887 11.0576474,50.5613982 C10.7701825,50.9071076 10.3972352,51.0799597 9.93879443,51.0799597 C9.64945065,51.0799597 9.40708191,51.0386255 9.21168092,50.9559559 L9.21168092,49.9188327 C9.35071624,49.9714407 9.48974947,49.9977443 9.62878479,49.9977443 C10.0120713,49.9977443 10.3136232,49.5665534 10.5334493,48.7041586 C10.7532754,47.8417639 10.9251881,46.5218876 11.0491926,44.7444901 L15.2371409,44.7444901 L15.2371409,50.978502 Z M21.1469392,50.978502 L20.8820218,50.1104751 L20.8369295,50.1104751 C20.5363126,50.4900039 20.2338214,50.7483427 19.9294468,50.8854991 C19.6250722,51.0226556 19.234276,51.0912328 18.7570467,51.0912328 C18.1445398,51.0912328 17.6663782,50.925896 17.3225476,50.5952174 C16.978717,50.2645388 16.8068043,49.7967108 16.8068043,49.1917192 C16.8068043,48.5491506 17.0454154,48.0644131 17.5226447,47.7374922 C17.999874,47.4105713 18.7269803,47.2320827 19.7039852,47.202021 L20.7805641,47.1682018 L20.7805641,46.835646 C20.7805641,46.4373286 20.6875622,46.1395344 20.5015555,45.9422546 C20.3155488,45.7449747 20.0271487,45.6463363 19.6363468,45.6463363 C19.3169413,45.6463363 19.0106924,45.693307 18.7175909,45.7872498 C18.4244894,45.8811926 18.1426653,45.9920434 17.8721101,46.1198056 L17.4437332,45.172867 C17.7819272,44.9962546 18.1520562,44.8619184 18.5541313,44.7698545 C18.9562064,44.6777906 19.3357296,44.6317593 19.6927122,44.6317593 C20.4855892,44.6317593 21.0839958,44.8046114 21.4879498,45.1503209 C21.8919037,45.4960303 22.0938777,46.0390115 22.0938777,46.7792806 L22.0938777,50.978502 L21.1469392,50.978502 Z M19.1741506,50.0766558 C19.6551376,50.0766558 20.0412367,49.9423197 20.3324593,49.6736433 C20.6236819,49.4049669 20.7692911,49.028262 20.7692911,48.5435173 L20.7692911,48.0024095 L19.9689026,48.0362288 C19.3451225,48.058775 18.8913856,48.16305 18.6076784,48.3490567 C18.3239712,48.5350634 18.1821197,48.8197057 18.1821197,49.2029923 C18.1821197,49.4810629 18.2647882,49.6961887 18.4301275,49.848376 C18.5954668,50.0005633 18.843472,50.0766558 19.1741506,50.0766558 Z M28.7420625,44.7444901 L28.7420625,45.7816132 L26.7129085,45.7816132 L26.7129085,50.978502 L25.3826854,50.978502 L25.3826854,45.7816132 L23.3535314,45.7816132 L23.3535314,44.7444901 L28.7420625,44.7444901 Z M31.3826682,44.7444901 L31.3826682,47.2471133 L34.319305,47.2471133 L34.319305,44.7444901 L35.6438916,44.7444901 L35.6438916,50.978502 L34.319305,50.978502 L34.319305,48.289873 L31.3826682,48.289873 L31.3826682,50.978502 L30.0580816,50.978502 L30.0580816,44.7444901 L31.3826682,44.7444901 Z M38.9777916,47.2358403 L40.2403763,47.2358403 C41.1121653,47.2358403 41.7566031,47.3861465 42.1737091,47.6867634 C42.5908151,47.9873803 42.7993649,48.4382989 42.7993649,49.0395327 C42.7993649,49.6821013 42.5823603,50.1658994 42.1483447,50.4909414 C41.714329,50.8159835 41.0783459,50.978502 40.2403763,50.978502 L37.653205,50.978502 L37.653205,44.7444901 L38.9777916,44.7444901 L38.9777916,47.2358403 Z M41.4860514,49.0733519 C41.4860514,48.7614619 41.3705035,48.5435179 41.1394042,48.4195134 C40.908305,48.2955089 40.5766919,48.2335076 40.1445551,48.2335076 L38.9777916,48.2335076 L38.9777916,49.9977443 L39.975459,49.9977443 C40.509054,49.9977443 40.8942136,49.9225912 41.1309494,49.7722827 C41.3676852,49.6219743 41.4860514,49.3889997 41.4860514,49.0733519 Z M45.1103458,50.978502 L43.7801227,50.978502 L43.7801227,44.7444901 L45.1103458,44.7444901 L45.1103458,50.978502 Z M48.5062478,47.7938576 L46.4150918,44.7444901 L47.9256843,44.7444901 L49.346092,46.9258306 L50.7777729,44.7444901 L52.2770922,44.7444901 L50.1802998,47.7938576 L52.3841865,50.978502 L50.8848671,50.978502 L49.346092,48.644975 L47.8129535,50.978502 L46.3136341,50.978502 L48.5062478,47.7938576 Z M62.1577194,44.7444901 L62.1577194,50.978502 L60.8274962,50.978502 L60.8274962,45.7928863 L58.0317729,45.7928863 L58.0317729,50.978502 L56.7071863,50.978502 L56.7071863,44.7444901 L62.1577194,44.7444901 Z M68.0675176,50.978502 L67.8026003,50.1104751 L67.757508,50.1104751 C67.456891,50.4900039 67.1543998,50.7483427 66.8500252,50.8854991 C66.5456506,51.0226556 66.1548545,51.0912328 65.6776251,51.0912328 C65.0651182,51.0912328 64.5869566,50.925896 64.243126,50.5952174 C63.8992954,50.2645388 63.7273827,49.7967108 63.7273827,49.1917192 C63.7273827,48.5491506 63.9659938,48.0644131 64.4432231,47.7374922 C64.9204525,47.4105713 65.6475587,47.2320827 66.6245636,47.202021 L67.7011426,47.1682018 L67.7011426,46.835646 C67.7011426,46.4373286 67.6081406,46.1395344 67.4221339,45.9422546 C67.2361272,45.7449747 66.9477272,45.6463363 66.5569252,45.6463363 C66.2375197,45.6463363 65.9312708,45.693307 65.6381694,45.7872498 C65.3450679,45.8811926 65.0632437,45.9920434 64.7926885,46.1198056 L64.3643116,45.172867 C64.7025056,44.9962546 65.0726346,44.8619184 65.4747097,44.7698545 C65.8767848,44.6777906 66.256308,44.6317593 66.6132906,44.6317593 C67.4061677,44.6317593 68.0045742,44.8046114 68.4085282,45.1503209 C68.8124822,45.4960303 69.0144561,46.0390115 69.0144561,46.7792806 L69.0144561,50.978502 L68.0675176,50.978502 Z M66.094729,50.0766558 C66.575716,50.0766558 66.9618151,49.9423197 67.2530377,49.6736433 C67.5442604,49.4049669 67.6898695,49.028262 67.6898695,48.5435173 L67.6898695,48.0024095 L66.889481,48.0362288 C66.2657009,48.058775 65.8119641,48.16305 65.5282568,48.3490567 C65.2445496,48.5350634 65.1026982,48.8197057 65.1026982,49.2029923 C65.1026982,49.4810629 65.1853666,49.6961887 65.3507059,49.848376 C65.5160452,50.0005633 65.7640504,50.0766558 66.094729,50.0766558 Z M74.1407755,51.0912328 C73.3516561,51.0912328 72.7391583,50.8075299 72.3032638,50.2401155 L72.2243523,50.2401155 C72.2769602,50.766195 72.3032638,51.0855957 72.3032638,51.1983271 L72.3032638,53.7516791 L70.9786772,53.7516791 L70.9786772,44.7444901 L72.0496195,44.7444901 C72.0796812,44.8609791 72.1416825,45.1390456 72.2356253,45.5786978 L72.3032638,45.5786978 C72.716612,44.9474023 73.3366251,44.6317593 74.1633216,44.6317593 C74.9411679,44.6317593 75.5470897,44.9135834 75.9811054,45.4772401 C76.415121,46.0408968 76.6321256,46.8318832 76.6321256,47.850223 C76.6321256,48.8685628 76.4113634,49.6633068 75.9698323,50.2344789 C75.5283012,50.805651 74.9186217,51.0912328 74.1407755,51.0912328 Z M73.8194927,45.7139748 C73.2934132,45.7139748 72.9091929,45.8680386 72.6668205,46.176171 C72.4244482,46.4843033 72.3032638,46.9765561 72.3032638,47.6529441 L72.3032638,47.850223 C72.3032638,48.6092807 72.4235088,49.1588377 72.6640023,49.4989106 C72.9044958,49.8389835 73.2971708,50.0090174 73.8420389,50.0090174 C74.3004797,50.0090174 74.6536992,49.8211346 74.9017082,49.4453635 C75.1497171,49.0695923 75.2737198,48.5341265 75.2737198,47.8389499 C75.2737198,47.1400156 75.1506566,46.6111257 74.9045265,46.2522642 C74.6583964,45.8934028 74.2967221,45.7139748 73.8194927,45.7139748 Z M82.1530027,44.7444901 L83.6072297,44.7444901 L81.0313314,47.7487653 L83.8270547,50.978502 L82.3051892,50.978502 L79.6109237,47.8164038 L79.6109237,50.978502 L78.286337,50.978502 L78.286337,44.7444901 L79.6109237,44.7444901 L79.6109237,47.7713114 L82.1530027,44.7444901 Z M90.2666876,47.850223 C90.2666876,48.8685628 90.0055306,49.6633068 89.4832087,50.2344789 C88.9608868,50.805651 88.2337806,51.0912328 87.3018682,51.0912328 C86.7194229,51.0912328 86.2046242,50.9597149 85.7574565,50.6966751 C85.3102889,50.4336353 84.9664635,50.055991 84.7259699,49.5637308 C84.4854764,49.0714706 84.3652314,48.500307 84.3652314,47.850223 C84.3652314,46.8393986 84.6245096,46.0502911 85.1430738,45.4828767 C85.661638,44.9154623 86.3925019,44.6317593 87.3356874,44.6317593 C88.2375381,44.6317593 88.9514926,44.9220382 89.4775722,45.5026046 C90.0036518,46.083171 90.2666876,46.8657026 90.2666876,47.850223 Z M85.7292738,47.850223 C85.7292738,49.2894264 86.260982,50.0090174 87.3244143,50.0090174 C88.3765735,50.0090174 88.9026452,49.2894264 88.9026452,47.850223 C88.9026452,46.4260504 88.3728158,45.7139748 87.3131413,45.7139748 C86.757,45.7139748 86.3539915,45.8980999 86.1041037,46.2663556 C85.8542159,46.6346113 85.7292738,47.1625618 85.7292738,47.850223 Z M97.3150667,46.3396306 C97.3150667,47.076142 96.8848152,47.5214241 96.0242993,47.6754903 L96.0242993,47.7205826 C96.5052863,47.7769483 96.8735365,47.9291333 97.1290609,48.1771422 C97.3845853,48.4251512 97.5123455,48.7464307 97.5123455,49.1409904 C97.5123455,49.7309511 97.2878257,50.1846879 96.8387792,50.5022145 C96.3897326,50.8197411 95.7368401,50.978502 94.8800819,50.978502 L91.9039894,50.978502 L91.9039894,44.7444901 L94.8688088,44.7444901 C96.4996556,44.7444901 97.3150667,45.2761983 97.3150667,46.3396306 Z M96.1539397,49.0620788 C96.1539397,48.7614619 96.0374524,48.548215 95.8044743,48.4223317 C95.5714962,48.2964483 95.2220343,48.2335076 94.7560781,48.2335076 L93.228576,48.2335076 L93.228576,49.9977443 L94.7898973,49.9977443 C95.6992634,49.9977443 96.1539397,49.6858589 96.1539397,49.0620788 Z M95.9904801,46.4523614 C95.9904801,46.2043524 95.8937204,46.0249244 95.7001983,45.9140719 C95.5066762,45.8032194 95.2182762,45.747794 94.8349896,45.747794 L93.228576,45.747794 L93.228576,47.2471133 L94.6377107,47.2471133 C95.0811207,47.2471133 95.4174308,47.1898091 95.6466512,47.0751989 C95.8758716,46.9605887 95.9904801,46.7529783 95.9904801,46.4523614 Z M104.521269,47.850223 C104.521269,48.8685628 104.260112,49.6633068 103.73779,50.2344789 C103.215468,50.805651 102.488362,51.0912328 101.556449,51.0912328 C100.974004,51.0912328 100.459205,50.9597149 100.012038,50.6966751 C99.5648701,50.4336353 99.2210447,50.055991 98.9805512,49.5637308 C98.7400577,49.0714706 98.6198127,48.500307 98.6198127,47.850223 C98.6198127,46.8393986 98.8790909,46.0502911 99.3976551,45.4828767 C99.9162192,44.9154623 100.647083,44.6317593 101.590269,44.6317593 C102.492119,44.6317593 103.206074,44.9220382 103.732153,45.5026046 C104.258233,46.083171 104.521269,46.8657026 104.521269,47.850223 Z M99.9838551,47.850223 C99.9838551,49.2894264 100.515563,50.0090174 101.578996,50.0090174 C102.631155,50.0090174 103.157226,49.2894264 103.157226,47.850223 C103.157226,46.4260504 102.627397,45.7139748 101.567723,45.7139748 C101.011581,45.7139748 100.608573,45.8980999 100.358685,46.2663556 C100.108797,46.6346113 99.9838551,47.1625618 99.9838551,47.850223 Z M110.025236,44.7444901 L111.479463,44.7444901 L108.903565,47.7487653 L111.699288,50.978502 L110.177423,50.978502 L107.483157,47.8164038 L107.483157,50.978502 L106.158571,50.978502 L106.158571,44.7444901 L107.483157,44.7444901 L107.483157,47.7713114 L110.025236,44.7444901 Z M121.365727,46.3396306 C121.365727,47.076142 120.935475,47.5214241 120.07496,47.6754903 L120.07496,47.7205826 C120.555947,47.7769483 120.924197,47.9291333 121.179721,48.1771422 C121.435246,48.4251512 121.563006,48.7464307 121.563006,49.1409904 C121.563006,49.7309511 121.338486,50.1846879 120.889439,50.5022145 C120.440393,50.8197411 119.7875,50.978502 118.930742,50.978502 L115.95465,50.978502 L115.95465,44.7444901 L118.919469,44.7444901 C120.550316,44.7444901 121.365727,45.2761983 121.365727,46.3396306 Z M120.2046,49.0620788 C120.2046,48.7614619 120.088113,48.548215 119.855135,48.4223317 C119.622156,48.2964483 119.272695,48.2335076 118.806738,48.2335076 L117.279236,48.2335076 L117.279236,49.9977443 L118.840558,49.9977443 C119.749924,49.9977443 120.2046,49.6858589 120.2046,49.0620788 Z M120.04114,46.4523614 C120.04114,46.2043524 119.944381,46.0249244 119.750859,45.9140719 C119.557336,45.8032194 119.268936,45.747794 118.88565,45.747794 L117.279236,45.747794 L117.279236,47.2471133 L118.688371,47.2471133 C119.131781,47.2471133 119.468091,47.1898091 119.697311,47.0751989 C119.926532,46.9605887 120.04114,46.7529783 120.04114,46.4523614 Z M129.859766,50.978502 L127.469873,44.0962881 L127.424781,44.0962881 C127.488662,45.1183856 127.520602,46.0765876 127.520602,46.9709229 L127.520602,50.978502 L126.297473,50.978502 L126.297473,42.7378823 L128.196987,42.7378823 L130.485421,49.2931769 L130.519241,49.2931769 L132.875314,42.7378823 L134.780464,42.7378823 L134.780464,50.978502 L133.48406,50.978502 L133.48406,46.9032845 C133.48406,46.4936939 133.494394,45.9601069 133.515061,45.3025074 C133.535728,44.6449079 133.553577,44.2465965 133.568608,44.1075612 L133.523516,44.1075612 L131.049075,50.978502 L129.859766,50.978502 Z M142.454499,47.850223 C142.454499,48.8685628 142.193342,49.6633068 141.67102,50.2344789 C141.148698,50.805651 140.421592,51.0912328 139.489679,51.0912328 C138.907234,51.0912328 138.392435,50.9597149 137.945268,50.6966751 C137.4981,50.4336353 137.154275,50.055991 136.913781,49.5637308 C136.673288,49.0714706 136.553043,48.500307 136.553043,47.850223 C136.553043,46.8393986 136.812321,46.0502911 137.330885,45.4828767 C137.849449,44.9154623 138.580313,44.6317593 139.523499,44.6317593 C140.425349,44.6317593 141.139304,44.9220382 141.665383,45.5026046 C142.191463,46.083171 142.454499,46.8657026 142.454499,47.850223 Z M137.917085,47.850223 C137.917085,49.2894264 138.448793,50.0090174 139.512226,50.0090174 C140.564385,50.0090174 141.090456,49.2894264 141.090456,47.850223 C141.090456,46.4260504 140.560627,45.7139748 139.500952,45.7139748 C138.944811,45.7139748 138.541803,45.8980999 138.291915,46.2663556 C138.042027,46.6346113 137.917085,47.1625618 137.917085,47.850223 Z M146.605697,51.0912328 C145.662511,51.0912328 144.945739,50.8159846 144.455357,50.2654799 C143.964976,49.7149752 143.719789,48.9249282 143.719789,47.8953153 C143.719789,46.8469138 143.976249,46.0408968 144.489177,45.4772401 C145.002104,44.9135834 145.743302,44.6317593 146.712791,44.6317593 C147.370391,44.6317593 147.962221,44.7538831 148.488301,44.9981343 L148.088107,46.0634402 C147.528208,45.8454929 147.066016,45.7365209 146.701518,45.7365209 C145.623055,45.7365209 145.083831,46.4523542 145.083831,47.8840422 C145.083831,48.5829765 145.218168,49.1081088 145.486844,49.4594548 C145.75552,49.8108008 146.149135,49.9864712 146.667699,49.9864712 C147.25766,49.9864712 147.815671,49.8399227 148.341751,49.5468212 L148.341751,50.7023116 C148.105015,50.841347 147.852313,50.9409248 147.583636,51.0010482 C147.31496,51.0611716 146.988984,51.0912328 146.605697,51.0912328 Z M153.789353,44.7444901 L155.24358,44.7444901 L152.667682,47.7487653 L155.463405,50.978502 L153.94154,50.978502 L151.247274,47.8164038 L151.247274,50.978502 L149.922687,50.978502 L149.922687,44.7444901 L151.247274,44.7444901 L151.247274,47.7713114 L153.789353,44.7444901 Z M162.015769,46.3396306 C162.015769,47.076142 161.585517,47.5214241 160.725001,47.6754903 L160.725001,47.7205826 C161.205988,47.7769483 161.574239,47.9291333 161.829763,48.1771422 C162.085287,48.4251512 162.213048,48.7464307 162.213048,49.1409904 C162.213048,49.7309511 161.988528,50.1846879 161.539481,50.5022145 C161.090435,50.8197411 160.437542,50.978502 159.580784,50.978502 L156.604691,50.978502 L156.604691,44.7444901 L159.569511,44.7444901 C161.200358,44.7444901 162.015769,45.2761983 162.015769,46.3396306 Z M160.854642,49.0620788 C160.854642,48.7614619 160.738154,48.548215 160.505176,48.4223317 C160.272198,48.2964483 159.922736,48.2335076 159.45678,48.2335076 L157.929278,48.2335076 L157.929278,49.9977443 L159.490599,49.9977443 C160.399965,49.9977443 160.854642,49.6858589 160.854642,49.0620788 Z M160.691182,46.4523614 C160.691182,46.2043524 160.594422,46.0249244 160.4009,45.9140719 C160.207378,45.8032194 159.918978,45.747794 159.535692,45.747794 L157.929278,45.747794 L157.929278,47.2471133 L159.338413,47.2471133 C159.781823,47.2471133 160.118133,47.1898091 160.347353,47.0751989 C160.576574,46.9605887 160.691182,46.7529783 160.691182,46.4523614 Z M166.414974,51.0912328 C165.445485,51.0912328 164.687378,50.8084693 164.140631,50.2429337 C163.593884,49.6773982 163.320515,48.8986242 163.320515,47.9065884 C163.320515,46.8882486 163.574156,46.0878681 164.081447,45.5054228 C164.588738,44.9229776 165.285783,44.6317593 166.172603,44.6317593 C166.995542,44.6317593 167.645616,44.8816434 168.122846,45.381419 C168.600075,45.8811946 168.838686,46.5688454 168.838686,47.4443922 L168.838686,48.1602326 L164.684557,48.1602326 C164.703346,48.7652241 164.866804,49.230234 165.174936,49.555276 C165.483068,49.880318 165.917077,50.0428366 166.476976,50.0428366 C166.845232,50.0428366 167.188118,50.0080783 167.505645,49.9385606 C167.823171,49.869043 168.164179,49.7534951 168.528677,49.5919135 L168.528677,50.6684924 C168.205513,50.8225586 167.878597,50.9315306 167.547919,50.9954117 C167.21724,51.0592927 166.839596,51.0912328 166.414974,51.0912328 Z M166.172603,45.6350632 C165.75174,45.6350632 165.41449,45.76846 165.160845,46.0352575 C164.907199,46.302055 164.755953,46.6909723 164.707103,47.202021 L167.536646,47.202021 C167.52913,46.6872146 167.405128,46.2973579 167.164634,46.0324392 C166.924141,45.7675206 166.593467,45.6350632 166.172603,45.6350632 Z" id="автоматизированная-о"></path>
                    </g>
                </g>
            </g>
        </g>
    </g>
</svg>